# Blender 3.1.0
# www.blender.org
mtllib 1.mtl
o bread
v -0.596023 0.001435 1.010203
v -0.587367 -0.199899 1.040697
v -0.455942 -0.071243 1.357656
v -0.433043 -0.275893 1.351953
v -0.492429 -0.352144 1.047158
v -0.399705 -0.369658 1.286251
v -0.558882 -0.290422 0.432006
v -0.679161 -0.102002 0.409311
v -0.714116 0.105741 0.559494
v -0.152116 -0.486279 1.410952
v -0.399705 -0.369658 1.286251
v -0.144333 -0.511790 1.111624
v -0.492429 -0.352144 1.047158
v -0.558882 -0.290422 0.432006
v -0.088096 -0.517365 0.514762
v 0.237404 -0.490162 1.160960
v 0.169154 -0.476789 1.407685
v 0.374554 -0.469471 0.582252
v 0.237404 -0.490162 1.160960
v 0.441531 -0.293142 1.189953
v 0.169154 -0.476789 1.407685
v 0.287821 -0.369365 1.457196
v 0.502307 -0.038055 1.207084
v 0.337834 -0.115916 1.450765
v 0.647792 0.027299 0.856652
v 0.640587 -0.247018 0.620020
v 0.374554 -0.469471 0.582252
v 0.403925 0.176375 1.209352
v 0.260162 0.077742 1.411262
v 0.541912 0.273700 0.853942
v 0.145628 0.267102 1.250151
v 0.078076 0.134909 1.407561
v -0.693720 0.138822 0.188010
v -0.495666 -0.279460 -0.102135
v -0.636841 -0.081143 -0.122735
v -0.676803 0.176901 -0.166567
v -0.495666 -0.279460 -0.102135
v -0.013207 -0.512365 -0.029494
v 0.457929 -0.461979 0.047608
v 0.736565 0.057110 0.526171
v 0.810132 0.024719 0.162538
v 0.721838 -0.232206 0.094726
v 0.457929 -0.461979 0.047608
v 0.665368 0.207017 0.555643
v -0.607110 0.101278 -0.698330
v -0.560917 -0.123590 -0.665855
v -0.416831 -0.307913 -0.634351
v -0.017968 -0.509807 -0.565872
v -0.416831 -0.307913 -0.634351
v 0.420012 -0.468519 -0.503479
v 0.420012 -0.468519 -0.503479
v 0.668416 -0.265249 -0.472730
v 0.766529 -0.019813 -0.209632
v 0.726494 -0.033038 -0.606809
v -0.458978 0.021447 -1.316232
v -0.426067 -0.191649 -1.294001
v -0.317268 -0.349738 -1.194813
v -0.262450 -0.296719 -1.519844
v -0.292669 -0.037169 -1.618737
v -0.019066 -0.501240 -1.072420
v -0.317268 -0.349738 -1.194813
v -0.262450 -0.296719 -1.519844
v 0.014551 -0.393630 -1.554307
v 0.353209 -0.477867 -1.067709
v 0.383762 -0.367337 -1.493931
v 0.353209 -0.477867 -1.067709
v 0.564807 -0.309406 -1.139043
v 0.633090 -0.088883 -1.073800
v 0.542361 -0.103555 -1.474857
v 0.383762 -0.367337 -1.493931
v -0.385110 0.481037 -0.772394
v 0.137449 0.554915 -0.812114
v -0.269143 0.407390 -1.181478
v 0.144266 0.448166 -1.190652
v 0.167160 0.258384 -1.461048
v -0.216954 0.260345 -1.442124
v -0.404685 0.247708 -1.242180
v -0.538058 0.326687 -0.739347
v 0.342941 -0.131841 -1.635212
v 0.367703 0.221312 -1.408557
v 0.505300 0.187453 -1.325029
v 0.134180 -0.115230 -1.700716
v 0.014551 -0.393630 -1.554307
v 0.086525 -0.109734 1.502730
v -0.354842 0.066172 1.366279
v -0.286491 0.162146 1.327962
v 0.004774 -0.367718 1.509331
v -0.152116 -0.486279 1.410952
v -0.570222 0.357775 -0.404598
v -0.398713 0.497718 -0.546622
v -0.622973 0.342787 0.319835
v -0.609111 0.372606 0.101307
v -0.588544 0.378661 -0.122953
v -0.411200 0.534590 -0.186266
v -0.422617 0.541340 -0.002039
v -0.434797 0.515805 0.182634
v 0.191666 0.625077 -0.202318
v 0.205895 0.609418 -0.049620
v 0.172677 0.607157 -0.351362
v 0.584019 0.374965 -0.605095
v 0.611805 0.372471 -0.450358
v 0.549341 0.356315 -0.752556
v 0.689450 0.175492 -0.608771
v 0.646052 0.164895 -0.850678
v 0.592634 0.146251 -1.064942
v -0.450803 0.150074 1.170956
v -0.536013 0.221533 0.925266
v -0.607068 0.278027 0.646293
v -0.441390 0.443403 0.599314
v -0.391904 0.398970 0.819265
v -0.335026 0.324180 1.030418
v 0.148977 0.559122 0.582788
v 0.166361 0.503485 0.740225
v 0.638419 0.406181 0.173663
v 0.647608 0.387505 0.311377
v 0.126308 0.582032 0.433306
v 0.616683 0.404760 0.040090
v 0.766758 0.222253 0.154488
v 0.750673 0.221542 -0.045768
v 0.717762 0.210089 -0.233617
v -0.571113 0.360483 -0.211428
v -0.527226 0.364486 -0.333098
v -0.623474 0.268103 -0.223558
v -0.406896 0.495121 -0.257359
v -0.379944 0.453895 -0.434815
v 0.158425 0.565699 -0.409357
v 0.161899 0.489092 -0.640145
v 0.527212 0.328519 -0.796005
v 0.500450 0.271872 -1.037629
v 0.555851 0.151493 -1.087574
v 0.527583 0.059924 -1.275882
v -0.609893 0.283975 0.544806
v -0.596296 0.321569 0.410693
v -0.671987 0.201876 0.512643
v -0.443200 0.430129 0.520068
v -0.434468 0.453186 0.301372
v 0.115866 0.563237 0.379264
v 0.190758 0.537589 0.085206
v 0.588703 0.386246 -0.026286
v 0.591288 0.361919 -0.302285
v 0.679252 0.220456 -0.278110
v 0.660021 0.213783 -0.443505
v 0.697760 0.089799 -0.492697
v 0.163213 0.385203 0.845234
v -0.295691 0.209972 1.147602
v 0.129279 0.305312 1.035683
v 0.599709 0.320926 0.415085
v 0.665368 0.207017 0.555643
v 0.541912 0.273700 0.853942
v 0.719294 0.131918 0.338003
v -0.406896 0.495121 -0.257359
v 0.158425 0.565699 -0.409357
v -0.571113 0.360483 -0.211428
v -0.623474 0.268103 -0.223558
v -0.527226 0.364486 -0.333098
v -0.379944 0.453895 -0.434815
v 0.161899 0.489092 -0.640145
v 0.500450 0.271872 -1.037629
v 0.527583 0.059924 -1.275882
v 0.555851 0.151493 -1.087574
v 0.527212 0.328519 -0.796005
v -0.443200 0.430129 0.520068
v -0.609893 0.283975 0.544806
v -0.671987 0.201876 0.512643
v -0.596296 0.321569 0.410693
v -0.434468 0.453186 0.301372
v 0.190758 0.537589 0.085206
v 0.591288 0.361919 -0.302285
v 0.660021 0.213783 -0.443505
v 0.697760 0.089799 -0.492697
v 0.679252 0.220456 -0.278110
v 0.588703 0.386246 -0.026286
v 0.115866 0.563237 0.379264
v -0.373693 0.112141 1.219976
v -0.295691 0.209972 1.147602
v -0.295691 0.209972 1.147602
v 0.163213 0.385203 0.845234
v 0.599709 0.320926 0.415085
v 0.719294 0.131918 0.338003
v 0.129279 0.305312 1.035683
vn -0.9337 0.1706 0.3149
vn -0.9361 -0.2699 0.2257
vn -0.6620 0.1733 0.7292
vn -0.6547 -0.3340 0.6781
vn -0.8385 -0.5141 0.1803
vn -0.6513 -0.5330 0.5401
vn -0.8414 -0.5397 -0.0283
vn -0.9369 -0.3493 -0.0141
vn -0.9843 0.1046 0.1419
vn -0.1817 -0.9806 0.0739
vn -0.4390 -0.8944 0.0859
vn -0.1954 -0.9802 0.0319
vn -0.4177 -0.9085 0.0057
vn -0.4229 -0.9045 -0.0550
vn -0.1720 -0.9849 -0.0203
vn 0.0494 -0.9985 0.0225
vn 0.0301 -0.9976 0.0624
vn 0.0943 -0.9955 0.0030
vn 0.6589 -0.7275 0.1911
vn 0.8183 -0.4890 0.3022
vn 0.3659 -0.7124 0.5989
vn 0.5577 -0.4484 0.6985
vn 0.8772 0.0734 0.4745
vn 0.5742 0.0929 0.8134
vn 0.9409 0.0697 0.3313
vn 0.8300 -0.5281 0.1794
vn 0.6320 -0.7682 0.1019
vn 0.5968 0.6169 0.5131
vn 0.3616 0.4942 0.7906
vn 0.7644 0.5357 0.3587
vn 0.0722 0.8958 0.4385
vn -0.0391 0.5941 0.8034
vn -0.9932 0.1036 -0.0531
vn -0.8104 -0.5789 -0.0906
vn -0.9215 -0.3771 -0.0925
vn -0.9857 0.1437 -0.0875
vn -0.4331 -0.9006 -0.0381
vn -0.1578 -0.9873 -0.0162
vn 0.1049 -0.9945 0.0042
vn 0.9717 0.1147 0.2065
vn 0.9974 -0.0225 0.0681
vn 0.8356 -0.5488 0.0263
vn 0.6492 -0.7600 0.0299
vn 0.8972 0.3828 0.2204
vn -0.9837 0.0188 -0.1786
vn -0.8986 -0.4239 -0.1134
vn -0.7827 -0.6173 -0.0799
vn -0.1862 -0.9825 -0.0082
vn -0.4491 -0.8933 -0.0163
vn 0.0969 -0.9953 0.0018
vn 0.6323 -0.7735 -0.0435
vn 0.8308 -0.5516 -0.0741
vn 0.9919 -0.0861 -0.0929
vn 0.9893 -0.0474 -0.1377
vn -0.9171 0.0720 -0.3922
vn -0.8694 -0.3931 -0.2994
vn -0.7671 -0.6244 -0.1474
vn -0.5968 -0.4058 -0.6922
vn -0.5445 0.0920 -0.8337
vn -0.1808 -0.9773 -0.1106
vn -0.4080 -0.9043 -0.1254
vn -0.3566 -0.9078 -0.2210
vn -0.1224 -0.9668 -0.2244
vn 0.0707 -0.9896 -0.1254
vn 0.0873 -0.9705 -0.2248
vn 0.5987 -0.7946 -0.1007
vn 0.8147 -0.5535 -0.1730
vn 0.9792 -0.0618 -0.1930
vn 0.8281 0.0138 -0.5604
vn 0.5702 -0.5440 -0.6155
vn -0.4620 0.8664 -0.1896
vn 0.2744 0.9615 0.0137
vn -0.3630 0.8451 -0.3926
vn 0.2207 0.8986 -0.3794
vn 0.1316 0.6890 -0.7127
vn -0.2990 0.6866 -0.6626
vn -0.7567 0.5098 -0.4094
vn -0.8507 0.4808 -0.2124
vn 0.4363 0.0036 -0.8998
vn 0.4286 0.6663 -0.6102
vn 0.7721 0.5297 -0.3511
vn 0.0745 0.0217 -0.9970
vn -0.0676 -0.4415 -0.8947
vn -0.0053 0.1755 0.9845
vn -0.4694 0.4236 0.7747
vn -0.2943 0.7032 0.6473
vn -0.0805 -0.2803 0.9565
vn -0.3710 -0.2510 0.8941
vn -0.7343 0.6766 0.0546
vn -0.3271 0.9354 0.1345
vn -0.7525 0.6360 0.1708
vn -0.8280 0.5605 -0.0168
vn -0.8020 0.5836 -0.1271
vn -0.4317 0.8695 -0.2400
vn -0.4090 0.9123 0.0202
vn -0.3181 0.9090 0.2692
vn 0.2015 0.9793 -0.0174
vn 0.3213 0.9050 0.2788
vn 0.0515 0.9481 -0.3137
vn 0.6677 0.7239 -0.1735
vn 0.7723 0.6351 0.0177
vn 0.4336 0.8054 -0.4042
vn 0.9492 0.3048 -0.0783
vn 0.9191 0.3292 -0.2166
vn 0.7267 0.5663 -0.3889
vn -0.5443 0.5920 0.5944
vn -0.7524 0.5515 0.3603
vn -0.7781 0.5884 0.2198
vn -0.4638 0.8820 0.0833
vn -0.3995 0.8554 0.3298
vn -0.2166 0.8051 0.5521
vn 0.1479 0.9626 0.2270
vn 0.3002 0.8068 0.5089
vn 0.6008 0.7993 -0.0129
vn 0.6878 0.6626 0.2966
vn 0.0278 0.9978 -0.0610
vn 0.4730 0.8537 -0.2179
vn 0.9205 0.3810 0.0863
vn 0.9052 0.4073 -0.1210
vn 0.7790 0.5672 -0.2674
vn -0.7618 0.5954 -0.2552
vn -0.6862 0.6848 -0.2452
vn -0.8192 0.5010 -0.2790
vn -0.4617 0.8472 -0.2627
vn -0.3253 0.9090 -0.2606
vn -0.0700 0.9479 -0.3109
vn 0.0970 0.9465 -0.3078
vn 0.4094 0.8772 -0.2510
vn 0.7480 0.6122 -0.2562
vn 0.7987 0.5040 -0.3288
vn 0.7790 0.5099 -0.3649
vn -0.7411 0.6623 0.1105
vn -0.6711 0.7342 0.1028
vn -0.8099 0.5809 0.0807
vn -0.4367 0.8970 0.0682
vn -0.2789 0.9561 0.0897
vn -0.1181 0.9854 -0.1229
vn 0.2532 0.9674 -0.0033
vn 0.4173 0.9051 -0.0817
vn 0.7946 0.6059 -0.0390
vn 0.8194 0.5610 -0.1179
vn 0.9118 0.3962 -0.1077
vn 0.9350 0.3331 -0.1222
vn 0.3684 0.8330 0.4129
vn -0.1103 0.9234 0.3677
vn 0.0624 0.9390 0.3381
vn 0.6878 0.6868 0.2353
vn 0.5993 0.7751 0.2001
vn -0.0260 0.9732 -0.2283
vn 0.8500 0.5259 0.0291
vn -0.4465 0.7697 -0.4564
vn -0.1370 0.8222 -0.5525
vn -0.7561 0.5896 -0.2839
vn -0.8623 0.2528 -0.4387
vn -0.5438 0.8116 0.2133
vn -0.2054 0.9094 0.3616
vn 0.3193 0.8992 0.2993
vn 0.6277 0.7601 -0.1680
vn 0.9174 0.3407 -0.2058
vn 0.4292 0.7633 -0.4829
vn 0.0371 0.8372 -0.5457
vn -0.4730 0.8701 -0.1385
vn -0.7546 0.6548 0.0428
vn -0.9214 0.3292 -0.2064
vn -0.6345 0.6999 0.3280
vn -0.2755 0.8556 0.4382
vn 0.2688 0.8375 0.4757
vn 0.7232 0.6694 0.1698
vn 0.9527 0.2811 0.1158
vn 0.9617 0.2733 -0.0196
vn 0.6287 0.6881 -0.3624
vn 0.3352 0.8645 -0.3747
vn -0.0841 0.9465 -0.3116
vn -0.4529 0.6978 0.5549
vn -0.3326 0.9072 0.2575
vn -0.0490 0.7028 0.7097
vn 0.3568 0.6224 0.6966
vn 0.7085 0.3999 0.5815
vn 0.8875 0.3858 0.2519
vn 0.0074 0.9830 0.1832
vt 0.422400 0.184800
vt 0.946400 0.715200
vt 0.942800 0.722500
vt 0.426000 0.177600
vt 0.481100 0.102500
vt 0.888100 0.797500
vt 0.490700 0.103900
vt 0.465800 0.176100
vt 0.504700 0.119400
vt 0.618700 0.782800
vt 0.438000 0.321700
vt 0.387600 0.327100
vt 0.372900 0.291500
vt 0.995500 0.608500
vt 0.203900 0.530100
vt 0.252400 0.508900
vt 0.202400 0.479100
vt 0.270600 0.468200
vt 0.283600 0.363500
vt 0.191300 0.377500
vt 0.127500 0.487500
vt 0.140900 0.529500
vt 0.100600 0.389000
vt 0.127500 0.487500
vt 0.462900 0.741100
vt 0.857200 0.142200
vt 0.087500 0.492500
vt 0.140900 0.529500
vt 0.532300 0.805600
vt 0.518100 0.772200
vt 0.792800 0.078900
vt 0.494000 0.779200
vt 0.882700 0.138200
vt 0.489400 0.761900
vt 0.813700 0.080500
vt 0.557800 0.819600
vt 0.943600 0.221200
vt 0.428800 0.678900
vt 0.940600 0.277200
vt 0.048500 0.395500
vt 0.100600 0.389000
vt 0.530300 0.762400
vt 0.590100 0.810200
vt 0.472900 0.678200
vt 0.637800 0.772100
vt 0.665900 0.809300
vt 0.381500 0.379500
vt 0.987000 0.520500
vt 0.464500 0.448200
vt 0.405300 0.453100
vt 0.388600 0.463500
vt 0.980000 0.436500
vt 0.271200 0.272500
vt 0.176600 0.284900
vt 0.084300 0.298000
vt 0.980800 0.299400
vt 0.391900 0.600600
vt 1.011600 0.385600
vt 0.361300 0.514500
vt 0.032500 0.306000
vt 0.974600 0.401600
vt 0.084300 0.298000
vt 0.421500 0.607600
vt 0.417800 0.589400
vt 0.951000 0.310600
vt 0.437100 0.581700
vt 0.497500 0.574300
vt 0.177600 0.193600
vt 0.255800 0.182000
vt 0.091700 0.204200
vt 0.091700 0.204200
vt 0.043000 0.209500
vt 0.952300 0.536000
vt 0.993400 0.473700
vt 0.379400 0.426300
vt 0.976600 0.567800
vt 0.396100 0.332300
vt 0.479800 0.735800
vt 0.889300 0.164300
vt 0.493600 0.730500
vt 0.539200 0.707000
vt 0.562200 0.784000
vt 0.820100 0.092600
vt 0.549500 0.807400
vt 0.177800 0.107400
vt 0.236300 0.086600
vt 0.225500 0.031200
vt 0.171200 0.025400
vt 0.104800 0.108200
vt 0.098800 0.035600
vt 0.104800 0.108200
vt 0.908800 0.693800
vt 0.063300 0.096000
vt 0.937500 0.678300
vt 0.434900 0.221700
vt 0.899400 0.773300
vt 0.472700 0.126700
vt 0.098800 0.035600
vt 0.833000 0.777800
vt 0.858600 0.293100
vt 0.641200 0.283700
vt 0.810400 0.196200
vt 0.638300 0.194000
vt 0.628800 0.130000
vt 0.788600 0.134500
vt 0.866800 0.181800
vt 0.922200 0.300900
vt 0.555700 0.088700
vt 0.815900 0.811300
vt 0.545400 0.142400
vt 0.488100 0.162200
vt 0.642500 0.073200
vt 0.728400 0.826800
vt 0.678300 0.792100
vt 0.708400 0.068200
vt 0.662400 0.831900
vt 0.846000 0.799600
vt 0.817600 0.790500
vt 0.696400 0.833400
vt 0.580100 0.831800
vt 0.674200 0.066600
vt 0.551500 0.786600
vt 0.583800 0.769400
vt 0.935600 0.380200
vt 0.864300 0.346500
vt 0.957600 0.551700
vt 0.951800 0.500000
vt 0.943300 0.446900
vt 0.869500 0.431900
vt 0.874200 0.475500
vt 0.879300 0.519200
vt 0.618600 0.428100
vt 0.612700 0.464200
vt 0.626500 0.392800
vt 0.455400 0.332700
vt 0.443800 0.369300
vt 0.469800 0.297800
vt 0.411500 0.331800
vt 0.429500 0.274500
vt 0.451800 0.223800
vt 0.885900 0.753300
vt 0.921400 0.695100
vt 0.951000 0.629000
vt 0.882000 0.617900
vt 0.861400 0.670000
vt 0.837800 0.720000
vt 0.636400 0.614000
vt 0.629100 0.651300
vt 0.432700 0.517100
vt 0.428900 0.549700
vt 0.645800 0.578600
vt 0.441800 0.485500
vt 0.379300 0.512600
vt 0.386000 0.465100
vt 0.399700 0.420700
vt 0.309700 0.641200
vt 0.273200 0.653800
vt 0.306000 0.626900
vt 0.295900 0.686400
vt 0.242800 0.694600
vt 0.250400 0.842100
vt 0.181300 0.844000
vt 0.134700 0.944800
vt 0.062400 0.938600
vt 0.047400 0.954000
vt -0.009000 0.947000
vt 0.302700 0.596400
vt 0.262900 0.603200
vt 0.291800 0.580200
vt 0.298800 0.642500
vt 0.233600 0.650000
vt 0.268400 0.798500
vt 0.182100 0.825800
vt 0.157100 0.937200
vt 0.074800 0.944300
vt 0.083800 0.967800
vt 0.034000 0.966400
vt 0.020100 0.977900
vt 0.186300 0.771800
vt 0.253300 0.633200
vt 0.240900 0.753300
vt 0.080500 0.910600
vt 0.125200 0.921400
vt 0.207300 0.873500
vt 0.063600 0.946600
vt 0.867700 0.415000
vt 0.632400 0.379000
vt 0.936000 0.425900
vt 0.957800 0.423000
vt 0.917700 0.397100
vt 0.856500 0.373000
vt 0.631000 0.324400
vt 0.490100 0.230300
vt 0.478800 0.173800
vt 0.467100 0.218400
vt 0.479000 0.287500
vt 0.882800 0.599200
vt 0.952100 0.605000
vt 0.978000 0.597400
vt 0.946500 0.573300
vt 0.879100 0.547400
vt 0.619000 0.496200
vt 0.452300 0.404400
vt 0.423700 0.371000
vt 0.408000 0.359300
vt 0.415700 0.410100
vt 0.453400 0.469800
vt 0.650200 0.565800
vt 0.853900 0.764900
vt 0.821400 0.747800
vt 0.821400 0.747800
vt 0.630500 0.676200
vt 0.448800 0.574300
vt 0.399100 0.556000
vt 0.644600 0.721300
s 1
usemtl M_bread
f 1/2/1 2/3/2 3/6/3
f 4/7/4 3/5/3 2/4/2
f 2/4/2 5/8/5 4/7/4
f 6/9/6 4/7/4 5/8/5
f 5/8/5 2/4/2 7/11/7
f 8/12/8 7/11/7 2/4/2
f 2/4/2 1/1/1 8/12/8
f 9/13/9 8/12/8 1/1/1
f 10/15/10 11/16/11 12/17/12
f 13/18/13 12/17/12 11/16/11
f 13/18/13 14/19/14 12/17/12
f 15/20/15 12/17/12 14/19/14
f 12/17/12 16/21/16 10/15/10
f 17/22/17 10/15/10 16/21/16
f 16/21/16 12/17/12 18/23/18
f 15/20/15 18/23/18 12/17/12
f 19/24/19 20/27/20 21/28/21
f 22/32/22 21/30/21 20/25/20
f 20/26/20 23/33/23 22/31/22
f 24/35/24 22/31/22 23/33/23
f 23/33/23 20/26/20 25/37/25
f 26/39/26 25/37/25 20/26/20
f 20/27/20 19/24/19 26/40/26
f 27/41/27 26/40/26 19/24/19
f 23/34/23 28/42/28 24/36/24
f 29/43/29 24/36/24 28/42/28
f 28/42/28 23/34/23 30/44/30
f 25/38/25 30/44/30 23/34/23
f 28/42/28 31/45/31 29/43/29
f 32/46/32 29/43/29 31/45/31
f 28/42/28 30/44/30 31/45/31
f 8/12/8 9/13/9 33/47/33
f 7/11/7 8/12/8 34/49/34
f 35/50/35 34/49/34 8/12/8
f 8/12/8 33/47/33 35/50/35
f 36/51/36 35/50/35 33/47/33
f 14/19/14 37/53/37 15/20/15
f 38/54/38 15/20/15 37/53/37
f 18/23/18 15/20/15 39/55/39
f 38/54/38 39/55/39 15/20/15
f 25/37/25 26/39/26 40/56/40
f 40/56/40 26/39/26 41/58/41
f 42/61/42 41/58/41 26/39/26
f 26/40/26 27/41/27 42/60/42
f 43/62/43 42/60/42 27/41/27
f 44/63/44 30/44/30 40/57/40
f 25/38/25 40/57/40 30/44/30
f 45/64/45 46/66/46 36/51/36
f 35/50/35 36/51/36 46/66/46
f 46/66/46 47/67/47 35/50/35
f 34/49/34 35/50/35 47/67/47
f 38/54/38 37/53/37 48/68/48
f 49/69/49 48/68/48 37/53/37
f 48/68/48 50/70/50 38/54/38
f 39/55/39 38/54/38 50/70/50
f 51/71/51 52/72/52 43/62/43
f 42/60/42 43/62/43 52/72/52
f 52/73/52 53/74/53 42/61/42
f 41/58/41 42/61/42 53/74/53
f 52/73/52 54/76/54 53/74/53
f 55/78/55 56/80/56 45/64/45
f 46/66/46 45/64/45 56/80/56
f 56/80/56 57/81/57 46/66/46
f 47/67/47 46/66/46 57/81/57
f 56/80/56 58/82/58 57/81/57
f 56/80/56 55/78/55 58/82/58
f 59/84/59 58/82/58 55/78/55
f 48/68/48 49/69/49 60/85/60
f 61/86/61 60/85/60 49/69/49
f 61/86/61 62/87/62 60/85/60
f 63/88/63 60/85/60 62/87/62
f 60/85/60 64/89/64 48/68/48
f 50/70/50 48/68/48 64/89/64
f 64/89/64 60/85/60 65/90/65
f 63/88/63 65/90/65 60/85/60
f 66/91/66 67/93/67 51/71/51
f 52/72/52 51/71/51 67/93/67
f 67/92/67 68/94/68 52/73/52
f 54/76/54 52/73/52 68/94/68
f 68/94/68 67/92/67 69/96/69
f 70/99/70 69/96/69 67/92/67
f 66/91/66 70/98/70 67/93/67
f 71/100/71 72/101/72 73/102/73
f 74/103/74 73/102/73 72/101/72
f 74/103/74 75/104/75 73/102/73
f 76/105/76 73/102/73 75/104/75
f 73/102/73 77/106/77 71/100/71
f 78/107/78 71/100/71 77/106/77
f 77/106/77 55/79/55 78/107/78
f 45/65/45 78/107/78 55/79/55
f 55/79/55 77/106/77 59/83/59
f 76/105/76 59/83/59 77/106/77
f 73/102/73 76/105/76 77/106/77
f 79/108/79 80/110/80 69/97/69
f 81/111/81 69/97/69 80/110/80
f 80/110/80 79/108/79 75/104/75
f 82/112/82 75/104/75 79/108/79
f 59/83/59 76/105/76 82/112/82
f 75/104/75 82/112/82 76/105/76
f 69/96/69 70/99/70 79/109/79
f 79/109/79 70/99/70 82/113/82
f 83/114/83 82/113/82 70/99/70
f 59/84/59 82/113/82 58/82/58
f 83/114/83 58/82/58 82/113/82
f 84/116/84 29/43/29 32/46/32
f 32/46/32 31/45/31 85/117/85
f 86/118/86 85/117/85 31/45/31
f 84/116/84 32/46/32 3/6/3
f 85/117/85 3/6/3 32/46/32
f 4/7/4 6/9/6 87/121/87
f 88/123/88 87/120/87 6/10/6
f 84/116/84 3/6/3 87/119/87
f 4/7/4 87/121/87 3/5/3
f 87/120/87 88/123/88 21/29/21
f 84/115/84 87/121/87 24/35/24
f 22/31/22 24/35/24 87/121/87
f 21/30/21 22/32/22 87/122/87
f 89/124/89 78/107/78 36/52/36
f 45/65/45 36/52/36 78/107/78
f 78/107/78 89/124/89 71/100/71
f 90/125/90 71/100/71 89/124/89
f 72/101/72 71/100/71 90/125/90
f 74/103/74 72/101/72 80/110/80
f 81/111/81 80/110/80 72/101/72
f 75/104/75 74/103/74 80/110/80
f 91/126/91 92/127/92 9/14/9
f 33/48/33 9/14/9 92/127/92
f 92/127/92 93/128/93 33/48/33
f 36/52/36 33/48/33 93/128/93
f 93/128/93 92/127/92 94/129/94
f 95/130/95 94/129/94 92/127/92
f 92/127/92 91/126/91 95/130/95
f 96/131/96 95/130/95 91/126/91
f 95/130/95 96/131/96 97/132/97
f 98/133/98 97/132/97 96/131/96
f 94/129/94 95/130/95 99/134/99
f 97/132/97 99/134/99 95/130/95
f 97/132/97 98/133/98 100/135/100
f 101/136/101 100/135/100 98/133/98
f 99/134/99 97/132/97 102/137/102
f 100/135/100 102/137/102 97/132/97
f 103/138/103 104/139/104 101/136/101
f 100/135/100 101/136/101 104/139/104
f 104/139/104 105/140/105 100/135/100
f 102/137/102 100/135/100 105/140/105
f 105/140/105 104/139/104 69/97/69
f 68/95/68 69/97/69 104/139/104
f 104/139/104 103/138/103 68/95/68
f 54/77/54 68/95/68 103/138/103
f 106/141/106 107/142/107 3/6/3
f 1/2/1 3/6/3 107/142/107
f 107/142/107 108/143/108 1/2/1
f 9/14/9 1/2/1 108/143/108
f 108/143/108 107/142/107 109/144/109
f 110/145/110 109/144/109 107/142/107
f 107/142/107 106/141/106 110/145/110
f 111/146/111 110/145/110 106/141/106
f 112/147/112 113/148/113 114/149/114
f 115/150/115 114/149/114 113/148/113
f 116/151/116 112/147/112 117/152/117
f 114/149/114 117/152/117 112/147/112
f 118/153/118 119/154/119 115/150/115
f 114/149/114 115/150/115 119/154/119
f 119/154/119 120/155/120 114/149/114
f 117/152/117 114/149/114 120/155/120
f 120/155/120 119/154/119 54/77/54
f 53/75/53 54/77/54 119/154/119
f 119/154/119 118/153/118 53/75/53
f 41/59/41 53/75/53 118/153/118
f 121/156/121 122/157/122 123/158/123
f 121/156/121 124/159/124 122/157/122
f 125/160/125 122/157/122 124/159/124
f 126/161/126 127/162/127 124/159/124
f 125/160/125 124/159/124 127/162/127
f 128/163/128 129/164/129 126/161/126
f 127/162/127 126/161/126 129/164/129
f 130/165/130 129/164/129 128/163/128
f 131/166/131 129/164/129 130/165/130
f 132/167/132 133/168/133 134/169/134
f 132/167/132 135/170/135 133/168/133
f 136/171/136 133/168/133 135/170/135
f 137/172/137 138/173/138 135/170/135
f 136/171/136 135/170/135 138/173/138
f 139/174/139 140/175/140 137/172/137
f 138/173/138 137/172/137 140/175/140
f 141/176/141 142/177/142 139/174/139
f 140/175/140 139/174/139 142/177/142
f 141/176/141 143/178/143 142/177/142
f 144/179/144 145/180/145 146/181/146
f 147/182/147 144/179/144 148/183/148
f 146/181/146 148/183/148 144/179/144
f 146/181/146 149/184/149 148/183/148
f 147/182/147 148/183/148 150/185/150
f 94/129/94 99/134/99 151/186/151
f 152/187/152 151/186/151 99/134/99
f 151/186/151 153/188/153 94/129/94
f 93/128/93 94/129/94 153/188/153
f 153/188/153 154/189/154 93/128/93
f 36/52/36 93/128/93 154/189/154
f 154/189/154 155/190/155 36/52/36
f 89/124/89 36/52/36 155/190/155
f 155/190/155 156/191/156 89/124/89
f 90/125/90 89/124/89 156/191/156
f 72/101/72 90/125/90 157/192/157
f 156/191/156 157/192/157 90/125/90
f 81/111/81 72/101/72 158/193/158
f 157/192/157 158/193/158 72/101/72
f 159/194/159 81/111/81 158/193/158
f 69/97/69 81/111/81 159/194/159
f 159/194/159 160/195/160 69/97/69
f 105/140/105 69/97/69 160/195/160
f 160/195/160 161/196/161 105/140/105
f 102/137/102 105/140/105 161/196/161
f 99/134/99 102/137/102 152/187/152
f 161/196/161 152/187/152 102/137/102
f 162/197/162 163/198/163 109/144/109
f 108/143/108 109/144/109 163/198/163
f 163/198/163 164/199/164 108/143/108
f 9/14/9 108/143/108 164/199/164
f 164/199/164 165/200/165 9/14/9
f 91/126/91 9/14/9 165/200/165
f 165/200/165 166/201/166 91/126/91
f 96/131/96 91/126/91 166/201/166
f 98/133/98 96/131/96 167/202/167
f 166/201/166 167/202/167 96/131/96
f 101/136/101 98/133/98 168/203/168
f 167/202/167 168/203/168 98/133/98
f 168/203/168 169/204/169 101/136/101
f 103/138/103 101/136/101 169/204/169
f 169/204/169 170/205/170 103/138/103
f 54/77/54 103/138/103 170/205/170
f 170/205/170 171/206/171 54/77/54
f 120/155/120 54/77/54 171/206/171
f 171/206/171 172/207/172 120/155/120
f 117/152/117 120/155/120 172/207/172
f 116/151/116 117/152/117 173/208/173
f 172/207/172 173/208/173 117/152/117
f 109/144/109 116/151/116 162/197/162
f 173/208/173 162/197/162 116/151/116
f 85/117/85 86/118/86 174/209/174
f 175/210/175 174/209/174 86/118/86
f 3/6/3 85/117/85 174/209/174
f 106/141/106 3/6/3 174/209/174
f 111/146/111 106/141/106 176/211/176
f 174/209/174 176/211/176 106/141/106
f 113/148/113 111/146/111 177/212/177
f 176/211/176 177/212/177 111/146/111
f 115/150/115 113/148/113 178/213/178
f 177/212/177 178/213/178 113/148/113
f 118/153/118 115/150/115 179/214/179
f 178/213/178 179/214/179 115/150/115
f 41/59/41 118/153/118 179/214/179
f 44/63/44 40/57/40 179/214/179
f 31/45/31 30/44/30 180/215/180
f 175/210/175 86/118/86 180/215/180
f 31/45/31 180/215/180 86/118/86
f 111/146/111 113/148/113 110/145/110
f 112/147/112 110/145/110 113/148/113
f 116/151/116 109/144/109 112/147/112
f 110/145/110 112/147/112 109/144/109
f 24/36/24 29/43/29 84/116/84
f 41/59/41 179/214/179 40/57/40
