# Blender 3.1.0
# www.blender.org
mtllib 7.mtl
o rawmeat
v 1.394616 -0.570627 -0.529562
v 1.318101 -0.570627 -0.771477
v 1.493868 -0.358553 -0.851710
v 1.579242 -0.358554 -0.581782
v 0.312315 -0.570627 0.758386
v 0.442390 -0.570627 0.712477
v 0.516754 -0.358554 0.804080
v 0.371616 -0.358554 0.855305
v -0.471989 -0.570627 0.763184
v -0.353391 -0.570627 0.843525
v -0.371175 -0.358554 0.950302
v -0.503506 -0.358554 0.860657
v 0.851360 -0.570626 -1.020150
v 0.748065 -0.570626 -1.039279
v 0.857824 -0.358553 -1.150522
v 0.973080 -0.358553 -1.129178
v -1.179751 -0.570627 -0.089957
v -1.256266 -0.570627 -0.021094
v -1.378599 -0.358554 -0.014435
v -1.293224 -0.358554 -0.091273
v -1.566151 -0.570627 0.164798
v -1.462856 -0.570627 0.449472
v -1.609110 -0.358554 0.510620
v -1.724367 -0.358554 0.192981
v -0.915333 -0.570626 -0.941285
v -1.033931 -0.570626 -0.872422
v -1.130518 -0.358553 -0.964344
v -0.998187 -0.358553 -1.041181
v 1.115721 -0.570627 0.379638
v 1.215190 -0.570627 -0.018240
v 1.379041 -0.358554 -0.011251
v 1.268053 -0.358554 0.432698
v -1.229486 -0.570627 0.812918
v -1.003767 -0.570627 0.778487
v -1.096861 -0.358554 0.877732
v -1.348718 -0.358554 0.916151
v -0.205020 -0.570626 -1.042667
v -0.326168 -0.570626 -0.998672
v -0.340800 -0.358553 -1.105212
v -0.205623 -0.358553 -1.154303
v -0.762745 -0.570627 0.747881
v -0.827931 -0.358554 0.843583
v 0.572465 -0.570627 0.831076
v 0.661892 -0.358554 0.936411
v 1.046472 -0.570626 -0.985718
v 1.190787 -0.358553 -1.090760
v -1.401644 -0.570627 0.028641
v -1.540811 -0.358554 0.041058
v 0.487914 -0.570626 -1.100491
v 0.105340 -0.570626 -1.089014
v 0.140675 -0.358553 -1.206016
v 0.567549 -0.358553 -1.218822
v -1.072189 -0.570627 -0.749998
v -1.173206 -0.358553 -0.827743
v 1.333788 -0.570627 -0.275458
v 1.511372 -0.358554 -0.298254
v -1.260092 -0.570627 0.812918
v -1.382867 -0.358554 0.916151
v -0.444767 -0.570626 -1.002497
v -0.473131 -0.358553 -1.109481
v -0.942555 -0.570627 0.786138
v -1.028561 -0.358554 0.886270
v 0.675760 -0.570627 0.827249
v 0.777147 -0.358554 0.932142
v 1.249237 -0.570626 -0.851818
v 1.417030 -0.358553 -0.941353
v -1.068805 -0.570627 -0.529918
v -1.169430 -0.358554 -0.582179
v -1.504939 -0.570627 0.087597
v -1.656067 -0.358554 0.106841
v 0.617989 -0.570626 -1.081362
v 0.712687 -0.358553 -1.197478
v -1.122365 -0.570627 -0.403668
v -1.229192 -0.358554 -0.441310
v -1.336607 -0.570627 0.751706
v -1.468243 -0.358554 0.847851
v -0.735523 -0.570626 -0.979543
v -0.797556 -0.358553 -1.083869
v 0.870873 -0.570627 0.639788
v 0.994853 -0.358554 0.722973
v -0.244995 -0.570627 0.967861
v 0.151634 -0.570627 0.949673
v 0.192329 -0.358554 1.068742
v -0.250227 -0.358554 1.089036
v 0.650315 -0.260358 -0.940209
v 0.742959 -0.260358 -0.923053
v -0.920860 -0.260358 0.690102
v -1.123302 -0.260358 0.720982
v 0.980058 -0.260358 0.332383
v 0.760460 -0.260358 0.565706
v -1.147320 -0.260358 -0.027023
v -1.078696 -0.260358 -0.088785
v -0.240335 -0.260358 0.859946
v -0.337553 -0.260358 0.748432
v 1.175637 -0.260358 -0.255156
v 1.069269 -0.260358 -0.024463
v -1.370349 -0.260358 0.070459
v -1.277706 -0.260358 0.017583
v -0.680278 -0.260358 -0.886633
v -0.419505 -0.260358 -0.907220
v -0.979191 -0.260358 -0.483375
v -0.982225 -0.260358 -0.680760
v 0.533654 -0.260358 -0.977952
v 0.585468 -0.260358 0.733836
v 0.115391 -0.260358 0.843635
v -1.027228 -0.260358 -0.370145
v 1.230191 -0.260358 -0.483056
v -1.425249 -0.260358 0.139698
v -0.313138 -0.260358 -0.903788
v 0.416993 -0.260358 -0.995108
v -0.865961 -0.260358 0.696964
v 0.492824 -0.260358 0.737267
v 1.099805 -0.260358 -0.772079
v 1.161567 -0.260358 -0.700024
v -1.219376 -0.260358 0.666082
v -1.332606 -0.260358 0.395016
v -0.204483 -0.260358 -0.943248
v -0.704693 -0.260358 0.662651
v 0.073871 -0.260358 -0.984814
v 0.376163 -0.260358 0.630899
v -0.947913 -0.260358 -0.790558
v 0.917950 -0.260358 -0.892172
v -1.150752 -0.260358 0.720982
v -0.443921 -0.260358 0.676376
v 0.259502 -0.260358 0.672073
v -0.841545 -0.260358 -0.852320
vn 0.0955 -0.0906 -0.0302
vn 0.0398 -0.0627 0.1128
vn -0.0687 -0.0568 0.1014
vn 0.0202 -0.0700 -0.1137
vn 0.0210 -0.0703 -0.1133
vn 0.0209 -0.0703 -0.1134
vn -0.0849 -0.0460 -0.0943
vn -0.1017 -0.0808 0.0369
vn -0.0580 -0.0698 -0.1000
vn 0.1044 -0.0815 0.0261
vn 0.0189 -0.0498 0.1241
vn -0.0413 -0.0600 -0.1137
vn -0.0064 -0.0571 0.1222
vn -0.0907 -0.0112 0.0994
vn 0.0201 -0.0700 -0.1137
vn -0.0432 -0.0209 -0.1262
vn -0.0036 -0.0647 -0.1184
vn -0.1122 -0.0663 -0.0351
vn 0.0997 -0.0786 0.0460
vn -0.0000 -0.0591 0.1214
vn 0.0039 -0.0604 -0.1207
vn 0.0263 -0.0477 0.1236
vn 0.0044 -0.0615 0.1201
vn 0.0584 -0.0836 -0.0885
vn -0.1221 -0.0575 0.0019
vn -0.0177 -0.0624 -0.1184
vn -0.0645 -0.0357 -0.1131
vn 0.1031 -0.0837 0.0247
vn 0.0168 -0.0700 -0.1142
vn -0.1097 -0.0635 -0.0465
vn -0.0677 -0.0804 0.0847
vn -0.0095 -0.0617 -0.1197
vn 0.0771 -0.0765 0.0802
vn -0.0945 -0.0606 -0.0750
vn -0.0149 -0.0622 0.1189
vn 0.0054 -0.0668 0.1172
vn 0.0771 -0.0889 -0.0661
vn 0.0922 -0.0612 0.0774
vn -0.0947 -0.0495 0.0825
vn -0.1175 -0.0630 -0.0215
vn 0.0347 -0.0742 -0.1073
vn -0.0247 -0.0643 -0.1161
vn -0.0998 -0.0808 0.0417
vn 0.0808 -0.0770 0.0760
vn -0.0000 -0.1350 -0.0000
vn 0.0091 0.1253 -0.0495
vn 0.0092 0.1253 -0.0495
vn 0.0088 0.1252 -0.0497
vn 0.0107 0.1149 0.0701
vn 0.0327 0.1273 0.0308
vn -0.0506 0.1119 -0.0562
vn -0.0537 0.1147 0.0468
vn 0.0397 0.1277 0.0183
vn -0.0446 0.1007 -0.0781
vn -0.0046 0.1219 -0.0579
vn -0.0623 0.1198 0.0010
vn 0.0145 0.1265 -0.0448
vn 0.0314 0.1272 0.0327
vn 0.0024 0.1240 0.0533
vn -0.0559 0.1225 -0.0102
vn 0.0389 0.1289 0.0093
vn -0.0464 0.1213 -0.0368
vn 0.0019 0.1212 -0.0594
vn 0.0074 0.1252 -0.0500
vn -0.0071 0.1221 0.0572
vn 0.0022 0.1218 0.0582
vn -0.0519 0.1227 -0.0220
vn 0.0276 0.1300 -0.0237
vn -0.0388 0.1283 0.0162
vn -0.0204 0.1210 -0.0562
vn 0.0153 0.1133 0.0719
vn -0.0017 0.1232 -0.0552
vn -0.0862 0.0433 0.0945
vn -0.0513 0.1238 -0.0160
vn 0.0221 0.1289 -0.0334
vn -0.0264 0.1282 0.0331
vn -0.0085 0.1222 -0.0568
vn 0.0337 0.1303 -0.0106
vn -0.0396 0.1283 0.0144
vn -0.0033 0.1196 0.0626
vn 0.0190 0.1223 0.0539
vn -0.0255 0.1251 -0.0439
vn -0.0000 0.1206 0.0607
vn 0.0088 0.1252 -0.0498
vn 0.0403 0.1285 0.0101
vn -0.0354 0.1194 0.0522
vn -0.0368 0.0729 -0.1075
vn 0.0449 0.1216 0.0377
vn -0.0116 0.1230 -0.0544
vn -0.0000 0.1350 -0.0000
vt 0.883000 0.656100
vt 0.862900 0.742800
vt 0.909100 0.771600
vt 0.931500 0.674800
vt 0.598300 0.194300
vt 0.632500 0.210800
vt 0.652100 0.177900
vt 0.613900 0.159600
vt 0.392000 0.192600
vt 0.423200 0.163800
vt 0.418500 0.125500
vt 0.383700 0.157700
vt 0.740100 0.832000
vt 0.712900 0.838900
vt 0.741800 0.878700
vt 0.772100 0.871100
vt 0.205900 0.498500
vt 0.185700 0.473800
vt 0.153600 0.471400
vt 0.176000 0.499000
vt 0.104200 0.407200
vt 0.131400 0.305100
vt 0.092900 0.283200
vt 0.062600 0.397000
vt 0.275400 0.803700
vt 0.244200 0.779000
vt 0.218800 0.812000
vt 0.253600 0.839500
vt 0.809600 0.330100
vt 0.835800 0.472800
vt 0.878900 0.470300
vt 0.849700 0.311100
vt 0.192800 0.174800
vt 0.252200 0.187100
vt 0.227700 0.151500
vt 0.161400 0.137800
vt 0.462200 0.840100
vt 0.430400 0.824300
vt 0.426500 0.862500
vt 0.462100 0.880100
vt 0.315600 0.198100
vt 0.298400 0.163800
vt 0.666700 0.168300
vt 0.690300 0.130500
vt 0.791400 0.819700
vt 0.829400 0.857300
vt 0.147500 0.456000
vt 0.110900 0.451500
vt 0.644500 0.860800
vt 0.543900 0.856700
vt 0.553200 0.898600
vt 0.665400 0.903200
vt 0.234200 0.735100
vt 0.207600 0.763000
vt 0.867000 0.565000
vt 0.913700 0.573200
vt 0.184700 0.174800
vt 0.152400 0.137800
vt 0.399200 0.825700
vt 0.391700 0.864000
vt 0.268300 0.184400
vt 0.245600 0.148500
vt 0.693900 0.169600
vt 0.720600 0.132000
vt 0.844700 0.771600
vt 0.888900 0.803700
vt 0.235100 0.656200
vt 0.208600 0.675000
vt 0.120300 0.434800
vt 0.080600 0.427900
vt 0.678700 0.853900
vt 0.703600 0.895600
vt 0.221000 0.611000
vt 0.192900 0.624500
vt 0.164600 0.196700
vt 0.130000 0.162300
vt 0.322700 0.817400
vt 0.306400 0.854800
vt 0.745200 0.236900
vt 0.777800 0.207000
vt 0.451700 0.119200
vt 0.556100 0.125700
vt 0.566800 0.083100
vt 0.450400 0.075800
vt 0.687200 0.803300
vt 0.711600 0.797200
vt 0.274000 0.218800
vt 0.220700 0.207700
vt 0.773900 0.347100
vt 0.716200 0.263400
vt 0.214400 0.475900
vt 0.232500 0.498100
vt 0.453000 0.157900
vt 0.427400 0.197900
vt 0.825400 0.557700
vt 0.797400 0.475000
vt 0.155700 0.441000
vt 0.180100 0.459900
vt 0.337200 0.784100
vt 0.405800 0.791500
vt 0.258600 0.639500
vt 0.257800 0.710300
vt 0.656500 0.816900
vt 0.670200 0.203100
vt 0.546500 0.163800
vt 0.246000 0.599000
vt 0.839700 0.639400
vt 0.141300 0.416200
vt 0.433800 0.790300
vt 0.625900 0.823000
vt 0.288400 0.216400
vt 0.645800 0.201900
vt 0.805400 0.743100
vt 0.821700 0.717200
vt 0.195400 0.227400
vt 0.165700 0.324600
vt 0.462400 0.804400
vt 0.330800 0.228700
vt 0.535600 0.819300
vt 0.615100 0.240000
vt 0.266800 0.749700
vt 0.757600 0.786100
vt 0.213500 0.207700
vt 0.399400 0.223700
vt 0.584400 0.225300
vt 0.294800 0.771800
s 1
usemtl M_meat
f 1/1/1 2/2/1 3/3/1 4/4/1
f 5/5/2 6/6/2 7/7/2 8/8/2
f 9/9/3 10/10/3 11/11/3 12/12/3
f 13/13/4 14/14/5 15/15/5 16/16/6
f 17/17/7 18/18/7 19/19/7 20/20/7
f 21/21/8 22/22/8 23/23/8 24/24/8
f 25/25/9 26/26/9 27/27/9 28/28/9
f 29/29/10 30/30/10 31/31/10 32/32/10
f 33/33/11 34/34/11 35/35/11 36/36/11
f 37/37/12 38/38/12 39/39/12 40/40/12
f 41/41/13 9/9/13 12/12/13 42/42/13
f 6/6/14 43/43/14 44/44/14 7/7/14
f 45/45/15 13/13/4 16/16/6 46/46/15
f 18/18/16 47/47/16 48/48/16 19/19/16
f 49/49/17 50/50/17 51/51/17 52/52/17
f 26/26/18 53/53/18 54/54/18 27/27/18
f 30/30/19 55/55/19 56/56/19 31/31/19
f 57/57/20 33/33/20 36/36/20 58/58/20
f 38/38/21 59/59/21 60/60/21 39/39/21
f 61/61/22 41/41/22 42/42/22 62/62/22
f 43/43/23 63/63/23 64/64/23 44/44/23
f 65/65/24 45/45/24 46/46/24 66/66/24
f 53/53/25 67/67/25 68/68/25 54/54/25
f 50/50/26 37/37/26 40/40/26 51/51/26
f 47/47/27 69/69/27 70/70/27 48/48/27
f 55/55/28 1/1/28 4/4/28 56/56/28
f 71/71/29 49/49/29 52/52/29 72/72/29
f 67/67/30 73/73/30 74/74/30 68/68/30
f 75/75/31 57/57/31 58/58/31 76/76/31
f 59/59/32 77/77/32 78/78/32 60/60/32
f 63/63/33 79/79/33 80/80/33 64/64/33
f 69/69/34 21/21/34 24/24/34 70/70/34
f 34/34/35 61/61/35 62/62/35 35/35/35
f 81/81/36 82/82/36 83/83/36 84/84/36
f 2/2/37 65/65/37 66/66/37 3/3/37
f 82/82/38 5/5/38 8/8/38 83/83/38
f 10/10/39 81/81/39 84/84/39 11/11/39
f 73/73/40 17/17/40 20/20/40 74/74/40
f 14/14/41 71/71/41 72/72/41 15/15/41
f 77/77/42 25/25/42 28/28/42 78/78/42
f 22/22/43 75/75/43 76/76/43 23/23/43
f 79/79/44 29/29/44 32/32/44 80/80/44
f 81/81/45 10/10/45 9/9/45 41/41/45 61/61/45 34/34/45 33/33/45 57/57/45 75/75/45 22/22/45 21/21/45 69/69/45 47/47/45 18/18/45 17/17/45 73/73/45 67/67/45 53/53/45 26/26/45 25/25/45 77/77/45 59/59/45 38/38/45 37/37/45 50/50/45 49/49/45 71/71/45 14/14/45 13/13/45 45/45/45 65/65/45 2/2/45 1/1/45 55/55/45 30/30/45 29/29/45 79/79/45 63/63/45 43/43/45 6/6/45 5/5/45 82/82/45
f 16/16/46 15/15/47 85/85/47 86/86/48
f 36/36/49 35/35/49 87/87/49 88/88/49
f 80/80/50 32/32/50 89/89/50 90/90/50
f 20/20/51 19/19/51 91/91/51 92/92/51
f 11/11/52 84/84/52 93/93/52 94/94/52
f 31/31/53 56/56/53 95/95/53 96/96/53
f 48/48/54 70/70/54 97/97/54 98/98/54
f 60/60/55 78/78/55 99/99/55 100/100/55
f 54/54/56 68/68/56 101/101/56 102/102/56
f 15/15/57 72/72/57 103/103/57 85/85/57
f 64/64/58 80/80/58 90/90/58 104/104/58
f 84/84/59 83/83/59 105/105/59 93/93/59
f 74/74/60 20/20/60 92/92/60 106/106/60
f 56/56/61 4/4/61 107/107/61 95/95/61
f 70/70/62 24/24/62 108/108/62 97/97/62
f 39/39/63 60/60/63 100/100/63 109/109/63
f 72/72/64 52/52/64 110/110/64 103/103/64
f 35/35/65 62/62/65 111/111/65 87/87/65
f 44/44/66 64/64/66 104/104/66 112/112/66
f 68/68/67 74/74/67 106/106/67 101/101/67
f 3/3/68 66/66/68 113/113/68 114/114/68
f 23/23/69 76/76/69 115/115/69 116/116/69
f 40/40/70 39/39/70 109/109/70 117/117/70
f 62/62/71 42/42/71 118/118/71 111/111/71
f 52/52/72 51/51/72 119/119/72 110/110/72
f 7/7/73 44/44/73 112/112/73 120/120/73
f 27/27/74 54/54/74 102/102/74 121/121/74
f 66/66/75 46/46/75 122/122/75 113/113/75
f 76/76/76 58/58/76 123/123/76 115/115/76
f 51/51/77 40/40/77 117/117/77 119/119/77
f 4/4/78 3/3/78 114/114/78 107/107/78
f 24/24/79 23/23/79 116/116/79 108/108/79
f 42/42/80 12/12/80 124/124/80 118/118/80
f 8/8/81 7/7/81 120/120/81 125/125/81
f 28/28/82 27/27/82 121/121/82 126/126/82
f 58/58/83 36/36/83 88/88/83 123/123/83
f 46/46/84 16/16/46 86/86/48 122/122/84
f 32/32/85 31/31/85 96/96/85 89/89/85
f 12/12/86 11/11/86 94/94/86 124/124/86
f 19/19/87 48/48/87 98/98/87 91/91/87
f 83/83/88 8/8/88 125/125/88 105/105/88
f 78/78/89 28/28/89 126/126/89 99/99/89
f 93/93/90 105/105/90 125/125/90 120/120/90 112/112/90 104/104/90 90/90/90 89/89/90 96/96/90 95/95/90 107/107/90 114/114/90 113/113/90 122/122/90 86/86/90 85/85/90 103/103/90 110/110/90 119/119/90 117/117/90 109/109/90 100/100/90 99/99/90 126/126/90 121/121/90 102/102/90 101/101/90 106/106/90 92/92/90 91/91/90 98/98/90 97/97/90 108/108/90 116/116/90 115/115/90 123/123/90 88/88/90 87/87/90 111/111/90 118/118/90 124/124/90 94/94/90
